<svg xmlns="http://www.w3.org/2000/svg" width="512" height="512"><path d="M296.982 145.655h-81.964a13.24 13.24 0 0 0-13.175 11.924l-7.636 76.352h123.586l-7.635-76.352c-.677-6.77-6.373-11.924-13.176-11.924z" fill="#afb9d2"/><path d="M17.655 233.93h476.7v158.897h-476.7z" fill="#e1c3a0"/><path d="M17.655 436.966a8.83 8.83 0 0 1-8.828-8.828V233.93h17.655v194.207a8.83 8.83 0 0 1-8.827 8.828zm476.7 0a8.83 8.83 0 0 1-8.828-8.828V233.93h17.655v194.207a8.83 8.83 0 0 1-8.827 8.828z" fill="#ebd2af"/><path d="M277.6 172.922V153.9H234.4v19.032l21.6 21.753z" fill="#d29b6e"/><path d="M310.464 176.353l-29.41-6.596c-.444-.1-.853-.268-1.235-.473L256 182.528l-22.89-13.885c-.593.532-1.33.927-2.164 1.114l-29.41 6.596c-4.295.963-7.33 4.616-7.33 8.82v39.928c0 2.503 2.13 4.53 4.754 4.53h114.08c2.625 0 4.754-2.028 4.754-4.53v-39.93c-.002-4.204-3.036-7.857-7.33-8.82z" fill="#707487"/><g fill="#5b5d6e"><path d="M300.345 192.746l15.4-13.187c1.3 1.558 2.047 3.518 2.047 5.615v39.93c0 2.503-2.13 4.53-4.754 4.53H296.4v-28.462c.001-3.214 1.434-6.278 3.943-8.426zm-88.7 0l-15.4-13.187c-1.3 1.558-2.047 3.518-2.047 5.615v39.93c0 2.503 2.13 4.53 4.754 4.53H215.6v-28.462c-.001-3.214-1.434-6.278-3.943-8.426zm50.287 36.888h-11.884l1.485-47.182h8.913z"/><path d="M234.276 163.892L256 182.528s-6.083 2.927-13.59 8.828c-1.55 1.217-3.892.724-4.722-1.017l-10.206-21.402 3.23-4.617c.802-1.15 2.49-1.352 3.566-.428z"/><path d="M277.724 163.892L256 182.528s6.083 2.927 13.59 8.828c1.55 1.217 3.892.724 4.722-1.017l10.206-21.402-3.23-4.617c-.802-1.15-2.49-1.352-3.566-.428z"/></g><path d="M264.828 75.034h-17.655c-14.626 0-26.483 11.857-26.483 26.483v19.17c0 4.682 1.86 9.173 5.17 12.484l3.657 3.656h52.966l3.657-3.657c3.31-3.31 5.17-7.8 5.17-12.484v-19.17a26.49 26.49 0 0 0-26.484-26.483z" fill="#694b4b"/><path d="M228.577 120.51l1.13 25.446c.177 3.97 2.08 7.65 5.2 10.035l8.963 6.872a12.82 12.82 0 0 0 7.804 2.659h8.67c2.814 0 5.553-.934 7.804-2.66l8.963-6.872c3.11-2.385 5.013-6.065 5.2-10.035l1.13-25.446c.413-9.284-6.838-17.043-15.928-17.043H244.51c-9.093 0-16.345 7.758-15.932 17.043z" fill="#f0c087"/><path d="M503.172 225.103H8.828A8.83 8.83 0 0 0 0 233.931a8.83 8.83 0 0 0 8.828 8.828h494.345a8.83 8.83 0 0 0 8.828-8.828c-.001-4.875-3.954-8.828-8.83-8.828z" fill="#f0dcbe"/><path d="M441.38 225.103a8.83 8.83 0 0 1-8.828-8.828V149.31l-24.966-24.97a17.56 17.56 0 0 0-12.487-5.171h-6.686v17.655a8.83 8.83 0 0 1-8.828 8.828 8.83 8.83 0 0 1-8.828-8.828v-26.483a8.83 8.83 0 0 1 8.828-8.828H395.1a35.11 35.11 0 0 1 24.97 10.338l27.552 27.56a8.83 8.83 0 0 1 2.586 6.241v70.62a8.83 8.83 0 0 1-8.829 8.83z" fill="#c7cfe2"/><path d="M388.414 136.828H370.76a17.66 17.66 0 0 0-17.655 17.655v6.62c0 1.22.988 2.207 2.207 2.207h48.552c1.22 0 2.207-.988 2.207-2.207v-6.62a17.66 17.66 0 0 0-17.656-17.655zm70.62 88.275H397.24v-8.828a8.83 8.83 0 0 1 8.828-8.828h44.138a8.83 8.83 0 0 1 8.828 8.828v8.828z" fill="#afb9d2"/><g fill="#959cb3"><circle cx="379.586" cy="110.345" r="8.828"/><circle cx="441.379" cy="145.655" r="8.828"/></g><path d="M139.034 225.103H55.172c-1.22 0-2.207-.988-2.207-2.207v-13.24c0-1.22.988-2.207 2.207-2.207h83.862c1.22 0 2.207.988 2.207 2.207v13.24c0 1.22-.987 2.207-2.207 2.207z" fill="#707487"/><path d="M139.034 189.793H64c-1.22 0-2.207-.988-2.207-2.207v-13.24c0-1.22.988-2.207 2.207-2.207h75.034c1.22 0 2.207.988 2.207 2.207v13.24c0 1.22-.987 2.207-2.207 2.207z" fill="#afb9d2"/><path d="M147.862 172.138H81.655c-1.22 0-2.207-.988-2.207-2.207V156.7c0-1.22.988-2.207 2.207-2.207h66.207c1.22 0 2.207.988 2.207 2.207v13.24c0 1.22-.988 2.207-2.207 2.207zm0 35.3H72.828c-1.22 0-2.207-.988-2.207-2.207V192c0-1.22.988-2.207 2.207-2.207h75.034c1.22 0 2.207.988 2.207 2.207v13.24c0 1.22-.988 2.207-2.207 2.207z" fill="#c7cfe2"/><path d="M368.552 225.103h-22.07c-1.22 0-2.207-.988-2.207-2.207V192c0-1.22.988-2.207 2.207-2.207h22.07c1.22 0 2.207.988 2.207 2.207v30.897c0 1.22-.99 2.206-2.207 2.206z" fill="#c5d0e4"/></svg>