<svg xmlns="http://www.w3.org/2000/svg" viewBox="0 0 512 512"><circle cx="256" cy="256" r="256" fill="#202738"/><circle cx="256" cy="256" r="162.77" fill="#fff"/><g fill="#2c44bf"><path d="M256 93.23V256H93.23c0-89.863 72.906-162.77 162.77-162.77z"/><path d="M256 418.77V256h162.77c0 89.863-72.906 162.77-162.77 162.77z"/></g><ellipse cx="256" cy="251.68" rx="256" ry="251.68" fill="#202738"/><ellipse cx="256" cy="251.68" rx="162.77" ry="160.02" fill="#fff"/><path d="M256 91.66c-4.293 0-8.546.166-12.755.487 83.933 6.397 150.014 75.38 150.014 159.537s-66.08 153.14-150.014 159.537c4.21.32 8.462.487 12.755.487 89.895 0 162.77-71.645 162.77-160.024S345.895 91.66 256 91.66z" fill="#cfcfcf"/><g fill="#2c44bf"><path d="M256 91.66v160.024H93.23C93.23 163.336 166.137 91.66 256 91.66z"/><path d="M256 411.707V251.683h162.77c0 88.348-72.906 160.024-162.77 160.024z"/></g><path d="M393.26 251.683c0 79.815-59.505 146.016-137.26 158.06v1.963c89.863 0 162.77-71.676 162.77-160.024l-25.5.001z" fill="#263aa3"/><path d="M256 0c-4.32 0-8.61.11-12.877.316 135.4 6.595 243.123 116.612 243.123 251.367S378.524 496.455 243.123 503.05a264.39 264.39 0 0 0 12.877.316c141.385 0 256-112.682 256-251.683S397.385 0 256 0z" fill="#191e2b"/><path d="M266.3 17.472c-3.838 0-7.384 1.24-10.3 3.32-2.905-2.08-6.45-3.32-10.3-3.32a17.75 17.75 0 0 0-17.726 17.726v34.63a7.5 7.5 0 1 0 15 0v-34.63a2.73 2.73 0 0 1 2.726-2.726 2.73 2.73 0 0 1 2.726 2.726v34.63a7.5 7.5 0 0 0 7.5 7.5c.02 0 .042-.003.063-.003s.042.003.063.003a7.5 7.5 0 0 0 7.5-7.5v-34.63a2.73 2.73 0 0 1 2.726-2.726 2.73 2.73 0 0 1 2.726 2.726v34.63a7.5 7.5 0 1 0 15 0v-34.63a17.75 17.75 0 0 0-17.726-17.726zM170.144 62.64a18.38 18.38 0 0 0-27.515-18.257l-19.43 11.1c-1.728.986-2.993 2.618-3.517 4.537a7.5 7.5 0 0 0 .721 5.695l21.816 38.22c1.384 2.425 3.916 3.784 6.52 3.784 1.26 0 2.538-.318 3.7-.988l19.43-11.1c8.86-5.058 11.954-16.38 6.896-25.24-1.995-3.495-5.012-6.168-8.633-7.75zm-20.08-5.23c1.097-.626 2.136-.48 2.66-.337s1.493.546 2.118 1.642c.957 1.677.372 3.82-1.305 4.777l-12.917 7.373-3.472-6.082 12.917-7.373zm14.38 25.193l-12.917 7.373-3.472-6.083 12.917-7.373a3.49 3.49 0 0 1 2.659-.337c.522.143 1.493.546 2.118 1.643.958 1.676.372 3.82-1.305 4.777zM389.2 56.396a7.5 7.5 0 0 0-10.231 2.798l-17.16 30.08a2.71 2.71 0 0 1-1.648 1.279c-.4.1-1.22.224-2.07-.262a2.71 2.71 0 0 1-1.016-3.718l17.16-30.08a7.5 7.5 0 0 0-2.798-10.231l-.055-.028s-.035-.024-.054-.034a7.5 7.5 0 0 0-10.231 2.798l-17.16 30.08a2.71 2.71 0 0 1-1.648 1.279c-.4.1-1.22.224-2.07-.262a2.71 2.71 0 0 1-1.016-3.718l17.16-30.08a7.5 7.5 0 1 0-13.029-7.433l-17.16 30.08a17.61 17.61 0 0 0-1.701 13.46 17.61 17.61 0 0 0 8.314 10.72 17.62 17.62 0 0 0 8.756 2.337c.607 0 1.216-.04 1.825-.105a17.58 17.58 0 0 0 7.293 7.964 17.62 17.62 0 0 0 8.756 2.337 17.83 17.83 0 0 0 4.704-.635 17.61 17.61 0 0 0 10.72-8.315L392 66.627c2.05-3.595.796-8.176-2.802-10.228z" fill="#ebebeb"/></svg>