<svg xmlns="http://www.w3.org/2000/svg" width="33" height="26" fill="none" fill-rule="evenodd"><path fill="#452062" d="M22.822 15.89c.3 0 .578-.29.578-.578v-4.333c0-1.06-.867-1.926-1.83-1.926H2.504c-.963 0-1.83.867-1.83 1.926v4.333c0 .29.29.578.578.578.674 0 1.252.578 1.252 1.348s-.578 1.348-1.252 1.348c-.29 0-.578.3-.578.578v4.333c0 1.06.867 1.926 1.83 1.926H21.57c1.06 0 1.83-.866 1.83-1.926v-4.333c0-.29-.29-.578-.578-.578-.674 0-1.252-.578-1.252-1.348s.578-1.348 1.252-1.348zm-.578 3.755V23.4a.76.76 0 0 1-.77.77H2.504a.83.83 0 0 1-.77-.77v-3.756a2.484 2.484 0 0 0 1.829-2.407c0-1.156-.77-2.118-1.83-2.407v-3.756a.76.76 0 0 1 .77-.77H21.57a.83.83 0 0 1 .77.77v3.756a2.484 2.484 0 0 0-1.829 2.407c0 1.156.77 2.12 1.733 2.407z"/><path fill="#f3f3f3" fill-rule="nonzero" d="M21.474 25.422H2.504c-1.06 0-1.926-.963-1.926-2.022v-4.333c0-.386.29-.674.674-.674.674 0 1.155-.578 1.155-1.252s-.48-1.252-1.155-1.252a.658.658 0 0 1-.674-.674V10.88c0-1.155.866-2.022 1.926-2.022H21.57c1.06 0 1.926.963 1.926 2.022v4.334a.658.658 0 0 1-.674.674c-.674 0-1.155.578-1.155 1.252s.48 1.252 1.155 1.252c.385 0 .674.288.674.674V23.4a1.97 1.97 0 0 1-2.022 2.022zM2.504 9.148c-.963 0-1.734.867-1.734 1.83v4.333c0 .29.193.482.386.482.77 0 1.348.674 1.348 1.444s-.578 1.444-1.348 1.444c-.193 0-.386.193-.386.482v4.333c0 .963.77 1.83 1.734 1.83H21.57c.963 0 1.734-.867 1.734-1.83v-4.333c0-.29-.193-.482-.385-.482-.77 0-1.35-.674-1.35-1.444s.578-1.444 1.35-1.444c.192 0 .385-.193.385-.482v-4.333c0-.963-.77-1.83-1.734-1.83H2.504zm18.97 15.12H2.504a.863.863 0 0 1-.867-.867v-3.852h.096c.963-.29 1.734-1.155 1.734-2.31 0-1.06-.674-2.022-1.734-2.31h-.096v-3.852c0-.48.385-.867.867-.867H21.57c.482 0 .867.386.867.867v3.852h-.096c-.963.29-1.734 1.155-1.734 2.31 0 1.06.674 2.022 1.734 2.31h.096V23.4c-.096.48-.48.867-.963.867zM1.83 19.644V23.4c0 .385.29.674.674.674H21.57a.658.658 0 0 0 .674-.674v-3.756c-1.06-.288-1.83-1.348-1.83-2.503s.77-2.215 1.83-2.504V10.88a.658.658 0 0 0-.674-.674H2.504a.658.658 0 0 0-.674.674v3.756c1.06.29 1.83 1.348 1.83 2.504 0 1.252-.77 2.215-1.83 2.503z"/><path fill="#ef5871" d="M6.26 11.94c-.193 0-.482.3-.482.58a.45.45 0 0 0 .481.481c.3 0 .482-.193.482-.48.096-.3-.193-.578-.482-.578m.001 2.503c-.193 0-.482.193-.482.482a.45.45 0 0 0 .481.481.45.45 0 0 0 .482-.481c.096-.29-.193-.482-.482-.482m.001 2.408a.45.45 0 0 0-.482.481.45.45 0 0 0 .481.482c.3 0 .482-.193.482-.482s-.193-.48-.482-.48m.001 2.504a.45.45 0 0 0-.482.481c0 .29.192.482.48.482s.482-.193.482-.482-.193-.48-.482-.48m.001 2.407c-.3 0-.482.193-.482.48a.45.45 0 0 0 .481.482c.3 0 .482-.193.482-.482.096-.192-.193-.48-.482-.48"/><circle cx="20.222" cy="11.267" r="8.378" fill="#8bd3f4"/><circle cx="19.741" cy="10.4" r="10.4" fill="#f3f3f3"/><circle cx="19.644" cy="10.4" r="7.704" fill="#f38582"/><g fill-rule="nonzero"><path fill="#452062" d="M15.407 2.022c-4.333 2.12-6.26 7.126-4.814 11.556l-1.734-.77c-.29-.097-.578 0-.674.288s0 .578.193.674l2.89 1.252h.29c.096 0 .096 0 .192-.096.096 0 .096-.096.096-.096v-.193l1.35-2.793c.096-.288 0-.577-.193-.674-.29-.096-.578 0-.674.3l-.77 1.83a8.53 8.53 0 0 1 4.333-10.4c4.237-2.12 9.34-.482 11.46 3.66s.288 9.244-3.95 11.362c-.29.096-.385.385-.29.578.096.29.385.385.674.192 4.72-2.407 6.645-8.088 4.334-12.614-2.312-4.623-7.993-6.452-12.712-4.045"/><path fill="#f3f3f3" d="M23.593 18.874a.53.53 0 0 1-.482-.289c-.096-.29 0-.674.29-.77 4.14-2.12 5.874-7.126 3.852-11.267-2.12-4.14-7.222-5.68-11.363-3.66A8.44 8.44 0 0 0 11.556 13l.77-1.637c.096-.29.48-.385.77-.29.097.096.3.193.3.29.095.096 0 .29 0 .48l-1.35 2.793v.193c-.096.096-.096.096-.193.096s-.192.096-.192.096h-.193L8.57 13.77c-.096-.096-.29-.192-.29-.29-.096-.096 0-.288 0-.48.097-.29.482-.385.77-.29l1.542.674c-1.54-4.43.577-9.34 4.814-11.46 4.72-2.406 10.497-.577 12.904 4.142 2.31 4.622.385 10.4-4.43 12.807h-.288zM19.74 1.83c3.178 0 6.163 1.733 7.607 4.622 2.12 4.14.29 9.34-3.948 11.46-.193.095-.29.384-.193.577s.386.29.578.192c4.72-2.3 6.645-7.992 4.334-12.518-2.312-4.622-7.993-6.452-12.712-4.14v-.001c-4.237 2.12-6.26 7.03-4.718 11.46l.096.192-1.83-.867a.463.463 0 0 0-.577.193c0 .096-.097.193 0 .29 0 .096.096.192.192.192l2.9 1.252h.288l.096-.096 1.35-2.793c0-.096.096-.192 0-.288a.207.207 0 0 0-.193-.193.463.463 0 0 0-.578.193l-.866 1.925-.097-.192c-1.444-4.045.482-8.57 4.334-10.496 1.25-.674 2.6-.963 3.948-.963z"/><path fill="#452062" d="M17.044 6.356h4.912c-.3.48-.482.674-.482.674h-1.252c.193.192.3.48.385.77h1.35c-.3.48-.482.674-.482.674h-.867c0 .29-.096.578-.385.867-.29.385-.578.578-.77.674-.482.192-.963.385-1.348.385l2.985 3.467h-1.252l-2.89-3.37v-.675h.578c1.06 0 1.733-.385 2.022-1.06 0-.096.096-.193.096-.29h-2.888c.288-.48.48-.674.48-.674h2.31c-.096-.29-.385-.48-.77-.674-.3-.096-.482-.096-.77-.096h-1.252l.288-.674z"/></g><circle cx="28.581" cy="5.561" r="4.369" fill="#f3f3f3"/><circle cx="28.581" cy="5.561" r="3.31" fill="#dbd9d9"/><path fill="#452062" d="M27.787 6.356l2.12-2.25c.132-.133.264-.133.397 0 .133.152.133.378 0 .53L27.787 7.28l-.927-.926c-.133-.152-.133-.378 0-.53.133-.132.265-.132.397 0l.53.53z"/></svg>