<svg xmlns="http://www.w3.org/2000/svg" width="33" height="26" viewBox="0 0 33 26">
    <g fill="none" fill-rule="evenodd">
        <path fill="#452062" d="M22.822 15.889c.29 0 .578-.289.578-.578v-4.333c0-1.06-.867-1.926-1.83-1.926H2.504c-.963 0-1.83.867-1.83 1.926v4.333c0 .289.289.578.578.578.674 0 1.252.578 1.252 1.348 0 .77-.578 1.348-1.252 1.348-.289 0-.578.29-.578.578v4.333c0 1.06.867 1.926 1.83 1.926H21.57c1.06 0 1.83-.866 1.83-1.926v-4.333c0-.289-.289-.578-.578-.578-.674 0-1.252-.578-1.252-1.348 0-.77.578-1.348 1.252-1.348zm-.578 3.755V23.4a.76.76 0 0 1-.77.77H2.504c-.385 0-.77-.385-.77-.77v-3.756a2.484 2.484 0 0 0 1.829-2.407c0-1.156-.77-2.118-1.83-2.407v-3.756a.76.76 0 0 1 .77-.77H21.57c.386 0 .77.385.77.77v3.756a2.484 2.484 0 0 0-1.829 2.407c0 1.156.77 2.119 1.733 2.407z"/>
        <path fill="#F3F3F3" fill-rule="nonzero" d="M21.474 25.422H2.504c-1.06 0-1.926-.963-1.926-2.022v-4.333c0-.386.289-.674.674-.674.674 0 1.155-.578 1.155-1.252s-.481-1.252-1.155-1.252a.658.658 0 0 1-.674-.674V10.88c0-1.155.866-2.022 1.926-2.022H21.57c1.06 0 1.926.963 1.926 2.022v4.334a.658.658 0 0 1-.674.674c-.674 0-1.155.578-1.155 1.252s.481 1.252 1.155 1.252c.385 0 .674.288.674.674V23.4c0 1.156-.866 2.022-2.022 2.022zM2.504 9.148c-.963 0-1.734.867-1.734 1.83v4.333c0 .289.193.482.386.482.77 0 1.348.674 1.348 1.444 0 .77-.578 1.444-1.348 1.444-.193 0-.386.193-.386.482v4.333c0 .963.77 1.83 1.734 1.83H21.57c.963 0 1.734-.867 1.734-1.83v-4.333c0-.289-.193-.482-.385-.482-.77 0-1.349-.674-1.349-1.444 0-.77.578-1.444 1.349-1.444.192 0 .385-.193.385-.482v-4.333c0-.963-.77-1.83-1.734-1.83H2.504zm18.97 15.119H2.504a.863.863 0 0 1-.867-.867v-3.852h.096c.963-.289 1.734-1.155 1.734-2.311 0-1.06-.674-2.022-1.734-2.311h-.096v-3.852c0-.481.385-.867.867-.867H21.57c.482 0 .867.386.867.867v3.852h-.096c-.963.289-1.734 1.155-1.734 2.311 0 1.06.674 2.022 1.734 2.311h.096V23.4c-.096.481-.481.867-.963.867zM1.83 19.644V23.4c0 .385.289.674.674.674H21.57a.658.658 0 0 0 .674-.674v-3.756c-1.059-.288-1.83-1.348-1.83-2.503 0-1.156.771-2.215 1.83-2.504v-3.756a.658.658 0 0 0-.674-.674H2.504a.658.658 0 0 0-.674.674v3.756c1.059.289 1.83 1.348 1.83 2.504 0 1.252-.771 2.215-1.83 2.503z"/>
        <path fill="#EF5871" d="M6.26 11.94c-.193 0-.482.29-.482.579 0 .288.192.481.481.481.29 0 .482-.193.482-.481.096-.29-.193-.578-.482-.578M6.26 14.444c-.193 0-.482.193-.482.482s.192.481.481.481c.29 0 .482-.192.482-.481.096-.289-.193-.482-.482-.482M6.26 16.852c-.29 0-.482.192-.482.481 0 .29.192.482.481.482.29 0 .482-.193.482-.482s-.193-.481-.482-.481M6.26 19.356c-.29 0-.482.192-.482.481s.192.482.481.482c.29 0 .482-.193.482-.482s-.193-.481-.482-.481M6.26 21.763c-.29 0-.482.193-.482.481 0 .29.192.482.481.482.29 0 .482-.193.482-.482.096-.192-.193-.481-.482-.481"/>
        <circle cx="20.222" cy="11.267" r="8.378" fill="#8BD3F4"/>
        <circle cx="19.741" cy="10.4" r="10.4" fill="#F3F3F3"/>
        <circle cx="19.644" cy="10.4" r="7.704" fill="#F38582"/>
        <g fill-rule="nonzero">
            <path fill="#452062" d="M15.407 2.022c-4.333 2.119-6.259 7.126-4.814 11.556l-1.734-.77c-.289-.097-.578 0-.674.288-.096.29 0 .578.193.674l2.889 1.252H11.556c.096 0 .096 0 .192-.096.096 0 .096-.096.096-.096v-.097-.096l1.349-2.793c.096-.288 0-.577-.193-.674-.289-.096-.578 0-.674.29l-.77 1.829c-1.349-3.948.385-8.474 4.333-10.4 4.237-2.119 9.34-.482 11.46 3.66 2.118 4.14.288 9.244-3.949 11.362-.289.096-.385.385-.289.578.096.289.385.385.674.192 4.719-2.407 6.645-8.088 4.334-12.614-2.312-4.623-7.993-6.452-12.712-4.045"/>
            <path fill="#F3F3F3" d="M23.593 18.874a.53.53 0 0 1-.482-.289c-.096-.289 0-.674.289-.77 4.14-2.119 5.874-7.126 3.852-11.267-2.119-4.14-7.222-5.681-11.363-3.66-3.756 1.83-5.585 6.164-4.333 10.112l.77-1.637c.096-.289.481-.385.77-.289.097.096.29.193.29.289.095.096 0 .289 0 .481l-1.349 2.793v.193c-.096.096-.096.096-.193.096-.096 0-.192.096-.192.096h-.193L8.57 13.77c-.096-.096-.289-.192-.289-.289-.096-.096 0-.288 0-.481.097-.289.482-.385.77-.289l1.542.674c-1.541-4.43.577-9.34 4.814-11.46 4.719-2.406 10.497-.577 12.904 4.142 2.311 4.622.385 10.4-4.43 12.807h-.288zM19.74 1.83c3.178 0 6.163 1.733 7.607 4.622 2.119 4.14.289 9.34-3.948 11.46-.193.095-.289.384-.193.577.097.192.386.289.578.192 4.719-2.31 6.645-7.992 4.334-12.518-2.312-4.622-7.993-6.452-12.712-4.14v-.097.096c-4.237 2.119-6.259 7.03-4.718 11.46l.096.192-1.83-.867a.463.463 0 0 0-.577.193c0 .096-.097.193 0 .289 0 .096.096.192.192.192l2.89 1.252H11.747l.096-.096 1.349-2.793c0-.096.096-.192 0-.288a.207.207 0 0 0-.193-.193.463.463 0 0 0-.578.193l-.866 1.925-.097-.192c-1.444-4.045.482-8.57 4.334-10.496 1.251-.674 2.6-.963 3.948-.963z"/>
        </g>
        <path fill="#452062" fill-rule="nonzero" d="M17.044 6.356h4.912c-.29.481-.482.674-.482.674h-1.252c.193.192.29.481.385.77h1.349c-.29.481-.482.674-.482.674h-.867c0 .289-.096.578-.385.867-.289.385-.578.578-.77.674-.482.192-.963.385-1.348.385 0 0 .963 1.156 2.985 3.467h-1.252c-1.926-2.215-2.889-3.37-2.889-3.37v-.675h.578c1.06 0 1.733-.385 2.022-1.059 0-.096.096-.193.096-.289h-2.888c.288-.481.481-.674.481-.674h2.311c-.096-.289-.385-.481-.77-.674-.29-.096-.482-.096-.77-.096h-1.252c.192-.482.288-.674.288-.674z"/>
        <g transform="translate(23)">
            <circle cx="5.581" cy="5.561" r="4.369" fill="#F3F3F3"/>
            <circle cx="5.581" cy="5.561" r="3.31" fill="#DBD9D9"/>
            <path fill="#452062" d="M4.787 6.356l2.119-2.251c.132-.133.264-.133.397 0a.403.403 0 0 1 0 .53L4.787 7.281l-.927-.926a.403.403 0 0 1 0-.53c.133-.132.265-.132.397 0l.53.53z"/>
        </g>
    </g>
</svg>
