<svg xmlns="http://www.w3.org/2000/svg" viewBox="0 0 512 512"><path d="M512 202.793c0 .51-.104 1.012-.29 1.45l-.166.344-54.292 106.487c-.177.323-.395.616-.645.866-.208.21-.437.386-.686.543a3.64 3.64 0 0 1-1.944.553h-98.52a4.15 4.15 0 0 0-3.452 1.847c-.447.668-.707 1.47-.707 2.327v31.054a3.72 3.72 0 0 1-1.092 2.64c-.676.678-1.6 1.096-2.63 1.096h-183.15c-1.02 0-1.955-.417-2.63-1.096a3.72 3.72 0 0 1-1.092-2.64V317.2a4.16 4.16 0 0 0-3.161-4.049c-.322-.083-.655-.125-.998-.125H3.722c-1.34 0-2.516-.7-3.17-1.784-.353-.563-.55-1.23-.55-1.95a3.76 3.76 0 0 1 .291-1.45l.166-.344L54.76 201.01c.177-.313.395-.605.645-.856a3.44 3.44 0 0 1 .676-.543 3.75 3.75 0 0 1 1.955-.553h98.5c1.144 0 2.183-.47 2.942-1.22a4.17 4.17 0 0 0 1.216-2.953v-31.148a3.72 3.72 0 0 1 1.092-2.64c.676-.678 1.61-1.096 2.63-1.096h183.15c1.02 0 1.955.417 2.63 1.096a3.64 3.64 0 0 1 .832 1.283 3.67 3.67 0 0 1 .26 1.357v31.148c0 .866.26 1.67.707 2.327v.01c.75 1.106 2.017 1.837 3.452 1.837H508.28a3.69 3.69 0 0 1 2.63 1.096 3.84 3.84 0 0 1 .541.689 3.66 3.66 0 0 1 .55 1.951z" fill="#ccc"/><path d="M188.598 284.936l1.216 37.74-28.018 28.23a3.72 3.72 0 0 1-1.092-2.64V317.2a4.16 4.16 0 0 0-3.161-4.049l31.055-28.225zm1.216-95.614l-1.216 37.826-29.1-29.3a4.17 4.17 0 0 0 1.216-2.953v-31.148a3.72 3.72 0 0 1 1.092-2.64l28.02 28.226z" fill="#e3e3e3"/><path d="M350.205 161.096l-28.018 28.23H189.813l-28.018-28.23a3.71 3.71 0 0 1 2.63-1.096h183.15a3.71 3.71 0 0 1 2.63 1.096zm0 189.808c-.676.678-1.6 1.096-2.63 1.096h-183.15c-1.02 0-1.955-.417-2.63-1.096l28.018-28.23h132.373l28.02 28.23z" fill="#a6a6a6"/><path d="M73.772 228.787l-27.208 54.15L.552 311.253A3.65 3.65 0 0 1 0 309.301a3.76 3.76 0 0 1 .291-1.45l.166-.344L54.76 201.01c.177-.313.395-.605.645-.856a3.44 3.44 0 0 1 .676-.543l17.69 29.177z" fill="#e3e3e3"/><path d="M512 202.793c0 .5-.104 1.012-.3 1.45l-.166.344-54.292 106.487c-.177.323-.395.616-.645.866a3.82 3.82 0 0 1-.686.543l-17.906-29.542 27.423-53.794 39.67-24.403 6.342-3.903a3.66 3.66 0 0 1 .551 1.952zM352.004 197.2h0l-27.822 28.184c-.094-.115-1.996 1.117-1.996 1.117v-37.2l28.02-28.226.832 1.283a3.67 3.67 0 0 1 .26 1.357v31.148c0 .867.26 1.67.707 2.327zm0 117.683c-.447.668-.707 1.47-.707 2.327v31.054a3.72 3.72 0 0 1-1.092 2.64l-28.02-28.226v-36.334h2.267l27.55 28.54z" fill="#8c8c8c"/><path d="M465.59 233.223l-25.208 49.44c-.71 1.395-2.14 2.272-3.702 2.272H327.56c-2.297 0-4.16 1.87-4.16 4.174v30.616c0 2.305-1.862 4.174-4.16 4.174H192.756c-2.297 0-4.16-1.87-4.16-4.174V289.1c0-2.305-1.862-4.174-4.16-4.174H50.113c-3.11 0-5.118-3.298-3.702-6.075l25.208-49.44c.71-1.395 2.14-2.272 3.702-2.272H184.44c2.297 0 4.16-1.87 4.16-4.174v-30.7c0-2.305 1.862-4.174 4.16-4.174h126.487c2.297 0 4.16 1.87 4.16 4.174v30.7c0 2.305 1.862 4.174 4.16 4.174h134.326c3.108-.001 5.117 3.297 3.7 6.074z" fill="#f3db53"/><path d="M256 188.1V323.9h-63.244c-2.297 0-4.16-1.87-4.16-4.174V289.1c0-2.305-1.862-4.174-4.16-4.174H50.113c-3.11 0-5.118-3.298-3.702-6.075l25.208-49.44c.71-1.395 2.14-2.272 3.702-2.272H184.44c2.297 0 4.16-1.87 4.16-4.174v-30.7c0-2.305 1.862-4.174 4.16-4.174L256 188.1z" fill="#f3c153"/></svg>