<svg xmlns="http://www.w3.org/2000/svg" viewBox="0 0 512 512"><path d="M256 119C114.618 119 0 180.34 0 256.005S114.618 393 256 393s256-61.33 256-136.995S397.382 119 256 119zm166.426 206.66c-34.79 18.626-79.087 30.614-127.475 34.802-7.572.658-15.247 1.122-22.994 1.38-5.285.196-10.6.288-15.957.288-51.57 0-100.31-8.572-140.352-24.44-6.274-2.48-12.342-5.145-18.162-7.985a257.82 257.82 0 0 1-7.912-4.044c-37.282-19.953-58.67-45.34-58.67-69.655s21.387-49.713 58.67-69.665c33.203-17.76 75.06-29.502 120.87-34.174 7.46-.772 15.02-1.338 22.664-1.72 7.55-.38 15.195-.576 22.89-.576 50.22 0 97.754 8.14 137.19 23.205 6.088 2.326 11.97 4.816 17.647 7.47 3.966 1.852 7.84 3.787 11.6 5.793 37.282 19.953 58.67 45.35 58.67 69.665s-21.387 49.7-58.67 69.654z" fill="#ccc"/><path d="M256 119c-5.2 0-10.34.093-15.453.256 134.185 4.277 240.547 63.862 240.547 136.75s-106.362 132.462-240.547 136.74c5.114.162 10.263.255 15.453.255 141.382 0 256-61.33 256-136.995S397.382 119 256 119z" fill="#8c8c8c"/><path d="M410.836 180.546C378.488 236.484 319.81 323.84 294.95 360.462c-7.572.658-15.247 1.122-22.994 1.38 11.033-31.51 28.268-99.538-28.618-99.538-55.3 0-105.717 50.052-127.69 75.387-6.274-2.48-12.342-5.145-18.162-7.985 44.67-85.05 91.8-149.95 112.96-177.54 7.46-.772 15.02-1.338 22.664-1.72-12.754 32.394-23.9 83.516 32.76 83.516 56.413 0 103.173-37.127 127.32-60.888a263.89 263.89 0 0 1 17.647 7.471z" fill="#ccc"/><path d="M393.19 173.076a273.27 273.27 0 0 1-14.891 13.598c-28.332 48.178-73.292 115.94-100.565 156.42-1.84 6.963-3.898 13.386-5.776 18.748a429.63 429.63 0 0 0 22.994-1.379c24.858-36.623 83.537-123.978 115.885-179.916-5.676-2.655-11.558-5.145-17.647-7.47z" fill="#8c8c8c"/></svg>