<svg version="1.1" x="0" y="0" id="ildfq2zd2" diagram-revision="13" width="915.9" height="766.25" xmlns="http://www.w3.org/2000/svg" xmlns:xml="http://www.w3.org/XML/1998/namespace" xmlns:xlink="http://www.w3.org/1999/xlink">
  <g id="Class-ildfq2zd-ko28" transform="translate(5.050000000000011,237.10000000000002)">
    <desc>root/umlClass/class?version=4&amp;author=Cinergix</desc>
    <g id="image">
      <g id="graphics">
        
        <rect x="1" y="1" width="208" height="31" fill="none" stroke="#186394" stroke-width="2" stroke-opacity="0" stroke-linejoin="round" stroke-linecap="round"/>
        <rect x="1" y="32" width="208" height="91.75" fill="none" stroke="#186394" stroke-width="2" stroke-opacity="0" stroke-linejoin="round" stroke-linecap="round"/>
        <rect x="1" y="123.75" width="208" height="52" fill="none" stroke="#186394" stroke-width="2" stroke-opacity="0" stroke-linejoin="round" stroke-linecap="round"/>
        <rect x="1" y="1" width="208" height="174.75" fill="#d7f6ff" stroke="#186394" stroke-width="2" stroke-linejoin="round" stroke-linecap="round"/>
        <path d="M 1 32 L 209 32 M 1 123.75 L 209 123.75 " fill="none" stroke="#186394" stroke-width="2" stroke-linejoin="round" stroke-linecap="round"/>
      </g>
      <text x="0" y="0" width="61" height="16.75" transform="translate(73.5,4)">
        <tspan x="0" y="13.870019531250001" style="font-family:Lato;font-size:14px;fill:#111111;font-weight:bold;">Customer</tspan>
      </text>
      <text x="0" y="0" width="108.45" height="16.75" transform="translate(6,35)">
        <tspan x="0" y="13.870019531250001" style="font-family:Lato;font-size:14px;fill:#111111;">+CustmerId: Char</tspan>
      </text>
      <text x="0" y="0" width="81" height="16.75" transform="translate(6,51.75)">
        <tspan x="0" y="13.920019531249999" style="font-family:Lato;font-size:14px;fill:#111111;">+Name: Char</tspan>
      </text>
      <text x="0" y="0" width="94.2" height="16.75" transform="translate(6,68.5)">
        <tspan x="0" y="13.870019531250001" style="font-family:Lato;font-size:14px;fill:#111111;">+Address: Char</tspan>
      </text>
      <text x="0" y="0" width="94" height="16.75" transform="translate(6,85.25)">
        <tspan x="0" y="13.920019531249999" style="font-family:Lato;font-size:14px;fill:#111111;">+PhNo: Integer</tspan>
      </text>
      <text x="0" y="0" width="83.3" height="16.75" transform="translate(6,102)">
        <tspan x="0" y="13.870019531250001" style="font-family:Lato;font-size:14px;fill:#111111;">+Age: Integer</tspan>
      </text>
      <text x="0" y="0" width="83.5" height="16.75" transform="translate(6,126.75)">
        <tspan x="0" y="13.920019531249999" style="font-family:Lato;font-size:14px;fill:#111111;">+AddDetails()</tspan>
      </text>
      <text x="0" y="0" width="102.6" height="16.75" transform="translate(6,143.5)">
        <tspan x="0" y="13.870019531250001" style="font-family:Lato;font-size:14px;fill:#111111;">+ModifyDetails()</tspan>
      </text>
    </g>
  </g>
  <g id="ildfq2zd-ko29" transform="translate(390.75,257.25)">
    <desc>root/umlClass/class?version=4&amp;author=Cinergix</desc>
    <g id="image">
      <g id="graphics">
        
        <rect x="1" y="1" width="208" height="31" fill="none" stroke="#186394" stroke-width="2" stroke-opacity="0" stroke-linejoin="round" stroke-linecap="round"/>
        <rect x="1" y="32" width="208" height="52" fill="none" stroke="#186394" stroke-width="2" stroke-opacity="0" stroke-linejoin="round" stroke-linecap="round"/>
        <rect x="1" y="84" width="208" height="52" fill="none" stroke="#186394" stroke-width="2" stroke-opacity="0" stroke-linejoin="round" stroke-linecap="round"/>
        <rect x="1" y="1" width="208" height="135" fill="#d7f6ff" stroke="#186394" stroke-width="2" stroke-linejoin="round" stroke-linecap="round"/>
        <path d="M 1 32 L 209 32 M 1 84 L 209 84 " fill="none" stroke="#186394" stroke-width="2" stroke-linejoin="round" stroke-linecap="round"/>
      </g>
      <text x="0" y="0" width="37.7" height="16.75" transform="translate(85.15,4)">
        <tspan x="0" y="13.920019531249999" style="font-family:Lato;font-size:14px;fill:#111111;font-weight:bold;">Agent</tspan>
      </text>
      <text x="0" y="0" width="70.9" height="16.75" transform="translate(6,35)">
        <tspan x="0" y="13.920019531249999" style="font-family:Lato;font-size:14px;fill:#111111;">+Id: Integer</tspan>
      </text>
      <text x="0" y="0" width="81" height="16.75" transform="translate(6,51.75)">
        <tspan x="0" y="13.920019531249999" style="font-family:Lato;font-size:14px;fill:#111111;">+Name: Char</tspan>
      </text>
    </g>
  </g>
  <g id="Connector-ildfq2zd-ko31" transform="translate(-364.4,-148.75)">
    <g id="graphics">
      
      <path d="M 579.45 475.85 L 657.5323529411764 475.85 L 657.5323529411764 476 L 755.15 476 " fill="none" stroke="#186394" stroke-width="2" mask="url(#TextboxMask-Connector-ildfq2zd-ko31)"/>
    </g>
    <text x="0" y="0" width="43.3" height="23.35" transform="translate(594.35,464.15)">
      <tspan x="4.9" y="15.91015625" style="font-family:Lato;font-size:12px;fill:#000000;font-weight:bold;">+ 1 . .*</tspan>
    </text>
    <text x="0" y="0" width="43.2" height="23.35" transform="translate(697.05,464.3)">
      <tspan x="4.9" y="15.86015625" style="font-family:Lato;font-size:12px;fill:#000000;font-weight:bold;">+ 1 . .*</tspan>
    </text>
    <mask id="TextboxMask-Connector-ildfq2zd-ko31" maskUnits="userSpaceOnUse" x="0" y="0" width="1500" height="1500">
      <rect x="0" y="0" width="1500" height="1500" style="fill:white;"/>
      <rect x="0" y="0" width="43.3" height="23.35" transform="translate(594.35,464.15)"/>
      <rect x="0" y="0" width="43.2" height="23.35" transform="translate(697.05,464.3)"/>
    </mask>
  </g>
  <g id="ildfq2zd-ko32" transform="translate(4.9500000000000455,601.95)">
    <desc>root/umlClass/class?version=4&amp;author=Cinergix</desc>
    <g id="image">
      <g id="graphics">
        
        <rect x="1" y="1" width="208" height="31" fill="none" stroke="#186394" stroke-width="2" stroke-opacity="0" stroke-linejoin="round" stroke-linecap="round"/>
        <rect x="1" y="32" width="208" height="52" fill="none" stroke="#186394" stroke-width="2" stroke-opacity="0" stroke-linejoin="round" stroke-linecap="round"/>
        <rect x="1" y="84" width="208" height="52" fill="none" stroke="#186394" stroke-width="2" stroke-opacity="0" stroke-linejoin="round" stroke-linecap="round"/>
        <rect x="1" y="1" width="208" height="135" fill="#d7f6ff" stroke="#186394" stroke-width="2" stroke-linejoin="round" stroke-linecap="round"/>
        <path d="M 1 32 L 209 32 M 1 84 L 209 84 " fill="none" stroke="#186394" stroke-width="2" stroke-linejoin="round" stroke-linecap="round"/>
      </g>
      <text x="0" y="0" width="45.25" height="16.75" transform="translate(81.35,4)">
        <tspan x="0" y="13.920019531249999" style="font-family:Lato;font-size:14px;fill:#111111;font-weight:bold;">Refund</tspan>
      </text>
      <text x="0" y="0" width="95.95" height="16.75" transform="translate(6,35)">
        <tspan x="0" y="13.920019531249999" style="font-family:Lato;font-size:14px;fill:#111111;">+Amount: Float</tspan>
      </text>
      <text x="0" y="0" width="116.4" height="16.75" transform="translate(6,51.75)">
        <tspan x="0" y="13.920019531249999" style="font-family:Lato;font-size:14px;fill:#111111;">+CustomerId: Char</tspan>
      </text>
      <text x="0" y="0" width="101.6" height="16.75" transform="translate(6,87)">
        <tspan x="0" y="13.920019531249999" style="font-family:Lato;font-size:14px;fill:#111111;">RefundAmount()</tspan>
      </text>
    </g>
  </g>
  <g id="Connector-ildfq2zd-ko34" transform="translate(-364.4,-148.75)">
    <g id="graphics">
      
      <path d="M 474.44999999999993 560.85 L 474.44999999999993 656.6500000000001 L 474.3909090909091 656.6500000000001 L 474.3909090909091 750.7 " fill="none" stroke="#186394" stroke-width="2"/>
    </g>
  </g>
  <g id="ildfq2zd-ko35" transform="translate(390.5,566.25)">
    <desc>root/umlClass/class?version=4&amp;author=Cinergix</desc>
    <g id="image">
      <g id="graphics">
        
        <rect x="1" y="1" width="208" height="31" fill="none" stroke="#186394" stroke-width="2" stroke-opacity="0" stroke-linejoin="round" stroke-linecap="round"/>
        <rect x="1" y="32" width="208" height="108.5" fill="none" stroke="#186394" stroke-width="2" stroke-opacity="0" stroke-linejoin="round" stroke-linecap="round"/>
        <rect x="1" y="140.5" width="208" height="52" fill="none" stroke="#186394" stroke-width="2" stroke-opacity="0" stroke-linejoin="round" stroke-linecap="round"/>
        <rect x="1" y="1" width="208" height="191.5" fill="#d7f6ff" stroke="#186394" stroke-width="2" stroke-linejoin="round" stroke-linecap="round"/>
        <path d="M 1 32 L 209 32 M 1 140.5 L 209 140.5 " fill="none" stroke="#186394" stroke-width="2" stroke-linejoin="round" stroke-linecap="round"/>
      </g>
      <text x="0" y="0" width="38.9" height="16.75" transform="translate(84.55,4)">
        <tspan x="0" y="13.920019531249999" style="font-family:Lato;font-size:14px;fill:#111111;font-weight:bold;">Ticket</tspan>
      </text>
      <text x="0" y="0" width="86.95" height="16.75" transform="translate(6,35)">
        <tspan x="0" y="13.920019531249999" style="font-family:Lato;font-size:14px;fill:#111111;">+Source: Char</tspan>
      </text>
      <text x="0" y="0" width="116.3" height="16.75" transform="translate(6,51.75)">
        <tspan x="0" y="13.920019531249999" style="font-family:Lato;font-size:14px;fill:#111111;">+Destination: Char</tspan>
      </text>
      <text x="0" y="0" width="140.55" height="16.75" transform="translate(6,68.5)">
        <tspan x="0" y="13.920019531249999" style="font-family:Lato;font-size:14px;fill:#111111;">+DateOfJourney: Date</tspan>
      </text>
      <text x="0" y="0" width="76.3" height="16.75" transform="translate(6,85.25)">
        <tspan x="0" y="13.920019531249999" style="font-family:Lato;font-size:14px;fill:#111111;">+Time: Time</tspan>
      </text>
      <text x="0" y="0" width="86" height="16.75" transform="translate(6,102)">
        <tspan x="0" y="13.920019531249999" style="font-family:Lato;font-size:14px;fill:#111111;">+BusNo: Char</tspan>
      </text>
      <text x="0" y="0" width="90.05" height="16.75" transform="translate(6,118.75)">
        <tspan x="0" y="13.920019531249999" style="font-family:Lato;font-size:14px;fill:#111111;">+SeatNo: Char</tspan>
      </text>
    </g>
  </g>
  <g id="Connector-ildfq2zd-ko37" transform="translate(-364.4,-148.75)">
    <g id="graphics">
      
      <path d="M 539.45 560.85 L 754.9 810 " fill="none" stroke="#186394" stroke-width="2" mask="url(#TextboxMask-Connector-ildfq2zd-ko37)"/>
    </g>
    <text x="0" y="0" width="26.65" height="23.35" transform="translate(547.45,573.85)">
      <tspan x="4.95" y="15.86015625" style="font-family:Lato;font-size:12px;fill:#000000;font-weight:bold;">+ 1</tspan>
    </text>
    <text x="0" y="0" width="23.65" height="23.35" transform="translate(722.45,774.45)">
      <tspan x="4.9" y="15.91015625" style="font-family:Lato;font-size:12px;fill:#000000;font-weight:bold;">+1</tspan>
    </text>
    <mask id="TextboxMask-Connector-ildfq2zd-ko37" maskUnits="userSpaceOnUse" x="0" y="0" width="1500" height="1500">
      <rect x="0" y="0" width="1500" height="1500" style="fill:white;"/>
      <rect x="0" y="0" width="26.65" height="23.35" transform="translate(547.45,573.85)"/>
      <rect x="0" y="0" width="23.65" height="23.35" transform="translate(722.45,774.45)"/>
    </mask>
  </g>
  <g id="Connector-ildfq2zd-ko40" transform="translate(-364.4,-148.75)">
    <g id="graphics">
      
      <path d="M 579.45 525.85 L 719.9411764705883 525.85 L 719.9411764705883 638.35 L 1065.3 638.35 " fill="none" stroke="#186394" stroke-width="2" mask="url(#TextboxMask-Connector-ildfq2zd-ko40)"/>
    </g>
    <text x="0" y="0" width="29.25" height="23.35" transform="translate(594.25,514.15)">
      <tspan x="4.8" y="15.91015625" style="font-family:Lato;font-size:12px;fill:#000000;font-weight:bold;">0..1</tspan>
    </text>
    <text x="0" y="0" width="27.25" height="23.35" transform="translate(1023.3,626.65)">
      <tspan x="4.7" y="15.91015625" style="font-family:Lato;font-size:12px;fill:#000000;font-weight:bold;">1..*</tspan>
    </text>
    <mask id="TextboxMask-Connector-ildfq2zd-ko40" maskUnits="userSpaceOnUse" x="0" y="0" width="1500" height="1500">
      <rect x="0" y="0" width="1500" height="1500" style="fill:white;"/>
      <rect x="0" y="0" width="29.25" height="23.35" transform="translate(594.25,514.15)"/>
      <rect x="0" y="0" width="27.25" height="23.35" transform="translate(1023.3,626.65)"/>
    </mask>
  </g>
  <g id="Connector-ildfq2zd-ko41" transform="translate(-364.4,-148.75)">
    <g id="graphics">
      
      <path d="M 859.9 715 L 859.9 629 L 860.15 629 L 860.15 541 " fill="none" stroke="#186394" stroke-width="2" mask="url(#TextboxMask-Connector-ildfq2zd-ko41)"/>
    </g>
    <text x="0" y="0" width="26.65" height="23.35" transform="translate(846.55,676.65)">
      <tspan x="4.9" y="15.91015625" style="font-family:Lato;font-size:12px;fill:#000000;font-weight:bold;">+ 1</tspan>
    </text>
    <text x="0" y="0" width="26.6" height="23.35" transform="translate(846.85,556)">
      <tspan x="4.85" y="15.91015625" style="font-family:Lato;font-size:12px;fill:#000000;font-weight:bold;">+ 1</tspan>
    </text>
    <mask id="TextboxMask-Connector-ildfq2zd-ko41" maskUnits="userSpaceOnUse" x="0" y="0" width="1500" height="1500">
      <rect x="0" y="0" width="1500" height="1500" style="fill:white;"/>
      <rect x="0" y="0" width="26.65" height="23.35" transform="translate(846.55,676.65)"/>
      <rect x="0" y="0" width="26.6" height="23.35" transform="translate(846.85,556)"/>
    </mask>
  </g>
  <g id="Interface-ildfq2zd-ko42" transform="translate(390.75,5)">
    <desc>root/umlClass/interface?version=4&amp;author=Cinergix</desc>
    <g id="image">
      <g id="graphics">
        
        <rect x="1" y="1" width="208" height="41.5" fill="none" stroke="#186394" stroke-width="2" stroke-opacity="0" stroke-linejoin="round" stroke-linecap="round"/>
        <rect x="1" y="42.5" width="208" height="52" fill="none" stroke="#186394" stroke-width="2" stroke-opacity="0" stroke-linejoin="round" stroke-linecap="round"/>
        <rect x="1" y="94.5" width="208" height="91.75" fill="none" stroke="#186394" stroke-width="2" stroke-opacity="0" stroke-linejoin="round" stroke-linecap="round"/>
        <rect x="1" y="1" width="208" height="185.25" fill="#d7f6ff" stroke="#186394" stroke-width="2" stroke-linejoin="round" stroke-linecap="round"/>
        <path d="M 1 42.5 L 209 42.5 M 1 94.5 L 209 94.5 " fill="none" stroke="#186394" stroke-width="2" stroke-linejoin="round" stroke-linecap="round"/>
      </g>
      <text x="0" y="0" width="88.8" height="16.75" transform="translate(59.6,4)">
        <tspan x="0" y="13.870019531250001" style="font-family:Lato;font-size:14px;fill:#111111;font-weight:bold;">&lt;&lt;Interface&gt;&gt;</tspan>
      </text>
      <text x="0" y="0" width="121.7" height="16.75" transform="translate(43.15,20.75)">
        <tspan x="0" y="13.920019531249999" style="font-family:Lato;font-size:14px;fill:#111111;font-weight:bold;">Common Functions</tspan>
      </text>
      <text x="0" y="0" width="95" height="16.75" transform="translate(6,97.5)">
        <tspan x="0" y="13.870019531250001" style="font-family:Lato;font-size:14px;fill:#111111;">+SearchTicket()</tspan>
      </text>
      <text x="0" y="0" width="85.5" height="16.75" transform="translate(6,114.25)">
        <tspan x="0" y="13.920019531249999" style="font-family:Lato;font-size:14px;fill:#111111;">+BookTicket()</tspan>
      </text>
      <text x="0" y="0" width="94.95" height="16.75" transform="translate(6,131)">
        <tspan x="0" y="13.870019531250001" style="font-family:Lato;font-size:14px;fill:#111111;">+CancelTicket()</tspan>
      </text>
      <text x="0" y="0" width="104.4" height="16.75" transform="translate(6,147.75)">
        <tspan x="0" y="13.920019531249999" style="font-family:Lato;font-size:14px;fill:#111111;">+MakePayment()</tspan>
      </text>
      <text x="0" y="0" width="76.25" height="16.75" transform="translate(6,164.5)">
        <tspan x="0" y="13.870019531250001" style="font-family:Lato;font-size:14px;fill:#111111;">+FillDetails()</tspan>
      </text>
    </g>
  </g>
  <g id="Interface-ildfq2zd-ko44" transform="translate(700.9,419.6)">
    <desc>root/umlClass/interface?version=4&amp;author=Cinergix</desc>
    <g id="image">
      <g id="graphics">
        
        <rect x="1" y="1" width="208" height="31" fill="none" stroke="#186394" stroke-width="2" stroke-opacity="0" stroke-linejoin="round" stroke-linecap="round"/>
        <rect x="1" y="32" width="208" height="52" fill="none" stroke="#186394" stroke-width="2" stroke-opacity="0" stroke-linejoin="round" stroke-linecap="round"/>
        <rect x="1" y="84" width="208" height="52" fill="none" stroke="#186394" stroke-width="2" stroke-opacity="0" stroke-linejoin="round" stroke-linecap="round"/>
        <rect x="1" y="1" width="208" height="135" fill="#d7f6ff" stroke="#186394" stroke-width="2" stroke-linejoin="round" stroke-linecap="round"/>
        <path d="M 1 32 L 209 32 M 1 84 L 209 84 " fill="none" stroke="#186394" stroke-width="2" stroke-linejoin="round" stroke-linecap="round"/>
      </g>
      <text x="0" y="0" width="106.05" height="16.75" transform="translate(50.95,4)">
        <tspan x="0" y="13.870019531250001" style="font-family:Lato;font-size:14px;fill:#4b4b4b;font-weight:bold;">Booking Counter</tspan>
      </text>
    </g>
  </g>
  <g id="Connector-ildfq2zd-ko46" transform="translate(-364.4,-148.75)">
    <g id="graphics">
      
      <path d="M 860.15 338.75 L 860.15 406 " fill="none" stroke="#186394" stroke-width="2" stroke-dasharray="5,5"/>
    </g>
    <g id="fromIcon" transform="translate(860.15,338.75)">
      <metadata id="metadata3277">
        <aaa:RDF xmlns:aaa="http://www.w3.org/1999/02/22-rdf-syntax-ns#"></aaa:RDF>
      </metadata>
      <defs id="defs3275"/>
      <aaa:namedview pagecolor="#ffffff" bordercolor="#666666" borderopacity="1" objecttolerance="10" gridtolerance="10" guidetolerance="10" aab:pageopacity="0" aab:pageshadow="2" aab:window-width="1366" aab:window-height="706" id="namedview3273" showgrid="true" aab:zoom="45.254834" aab:cx="5.3422801" aab:cy="5.5253458" aab:window-x="-8" aab:window-y="-8" aab:window-maximized="1" aab:current-layer="Layer_1" xmlns:aaa="http://sodipodi.sourceforge.net/DTD/sodipodi-0.dtd" xmlns:aab="http://www.inkscape.org/namespaces/inkscape"></aaa:namedview>
      <polygon points="0,0 -8,8 8,8 " id="polygon3271" transform="translate(0.00396088,0.7512019)" style="fill:#ffffff;stroke-width:2;stroke:#186394;" stroke="#186394" stroke-width="2"/>
    </g>
  </g>
  <g id="Connector-ildfq2zd-ko48" transform="translate(-364.4,-148.75)">
    <g id="graphics">
      
      <path d="M 964.8999999999997 810 L 1170.2999999999997 810 L 1170.2999999999997 703.35 " fill="none" stroke="#186394" stroke-width="2" mask="url(#TextboxMask-Connector-ildfq2zd-ko48)"/>
    </g>
    <text x="0" y="0" width="26.45" height="23.35" transform="translate(979.7,798.3)">
      <tspan x="4.8" y="15.86015625" style="font-family:Lato;font-size:12px;fill:#4b4b4b;font-weight:bold;">+ 1</tspan>
    </text>
    <text x="0" y="0" width="26.35" height="23.35" transform="translate(1157.1,718.35)">
      <tspan x="4.75" y="15.86015625" style="font-family:Lato;font-size:12px;fill:#4b4b4b;font-weight:bold;">+ 1</tspan>
    </text>
    <mask id="TextboxMask-Connector-ildfq2zd-ko48" maskUnits="userSpaceOnUse" x="0" y="0" width="1500" height="1500">
      <rect x="0" y="0" width="1500" height="1500" style="fill:white;"/>
      <rect x="0" y="0" width="26.45" height="23.35" transform="translate(979.7,798.3)"/>
      <rect x="0" y="0" width="26.35" height="23.35" transform="translate(1157.1,718.35)"/>
    </mask>
  </g>
  <g id="Connector-ildfq2zd-ko49" transform="translate(-364.4,-148.75)">
    <g id="graphics">
      
      <path d="M 474.44999999999993 385.85 L 474.44999999999993 365.85 L 1170.2999999999997 365.85 L 1170.2999999999997 568.35 " fill="none" stroke="#186394" stroke-width="2"/>
    </g>
  </g>
  <g id="TextBox-ildfq2zd-ko50" transform="translate(225.20000000000005,290.65)">
    <desc>root/textControl?version=&amp;author=</desc>
    <g id="image"/>
    <text x="0" y="0" width="63.85" height="25.75" transform="translate(43.05,5.6)">
      <tspan x="7" y="17.92001953125" style="font-family:Lato;font-size:14px;fill:#4b4b4b;">Request</tspan>
    </text>
  </g>
  <g id="ildfq2zd-ko51" transform="translate(497.20000000000005,451.9)">
    <desc>root/textControl?version=&amp;author=</desc>
    <g id="image"/>
    <text x="0" y="0" width="63.85" height="25.75" transform="translate(43.05,5.6)">
      <tspan x="7" y="17.92001953125" style="font-family:Lato;font-size:14px;fill:#4b4b4b;">Request</tspan>
    </text>
  </g>
  <g id="ildfq2zd-ko53" transform="translate(641.3000000000001,620.8)">
    <desc>root/textControl?version=&amp;author=</desc>
    <g id="image"/>
    <text x="0" y="0" width="52" height="25.75" transform="translate(49,5.6)">
      <tspan x="7" y="17.92001953125" style="font-family:Lato;font-size:14px;fill:#4b4b4b;">Books</tspan>
    </text>
  </g>
  <g id="ildfq2zd-ko55" transform="translate(382.15,523.1)">
    <desc>root/textControl?version=&amp;author=</desc>
    <g id="image"/>
    <text x="0" y="0" width="52" height="25.75" transform="translate(49,5.6)">
      <tspan x="7" y="17.92001953125" style="font-family:Lato;font-size:14px;fill:#4b4b4b;">Books</tspan>
    </text>
  </g>
  <g id="ildfq2zd-ko57" transform="translate(180.05000000000007,534.7)">
    <desc>root/textControl?version=&amp;author=</desc>
    <g id="image"/>
    <text x="0" y="0" width="52" height="25.75" transform="translate(49,5.6)">
      <tspan x="7" y="17.92001953125" style="font-family:Lato;font-size:14px;fill:#4b4b4b;">Books</tspan>
    </text>
  </g>
  <g id="ildfq2zd-ko59" transform="translate(6.800000000000011,483.75)">
    <desc>root/textControl?version=&amp;author=</desc>
    <g id="image"/>
    <text x="0" y="0" width="42.55" height="25.75" transform="translate(53.7,5.6)">
      <tspan x="7" y="17.92001953125" style="font-family:Lato;font-size:14px;fill:#4b4b4b;">Gets</tspan>
    </text>
  </g>
</svg>