<svg xmlns="http://www.w3.org/2000/svg" viewBox="0 0 512 512"><path d="M256 0C114.67 0 0 114.6 0 255.96 0 397.4 114.67 512 256 512s256-114.6 256-256.04C512 114.6 397.33 0 256 0zm0 475.96c-121.28 0-219.94-98.68-219.94-219.97C36.06 134.7 134.72 36 256 36 377.27 36 475.94 134.7 475.94 256c0 121.3-98.67 219.97-219.94 219.97z" fill="#ccc"/><path d="M256 0a259.97 259.97 0 0 0-18.03.64c132.924 9.256 237.97 120.023 237.97 255.32 0 135.373-105.047 246.143-237.97 255.4A259.35 259.35 0 0 0 256 512c141.33 0 256-114.6 256-256.04C512 114.6 397.33 0 256 0zm193.4 364.62l-.04.08c-.07.122-.193.204-.336.255h-.01l-2.24-.856-188.668-71.446c-1.37-.518-2.88-.518-4.25 0l-190.92 72.292c-.132-.05-.244-.132-.316-.245l-.01-.02c-.02-.02-.03-.04-.03-.07-.08-.153-.092-.326-.04-.52l1.65-1.498 146.777-132.5a6 6 0 0 0 1.837-3.155l42.43-191.357c.122-.224.285-.397.47-.48.082-.05.173-.07.275-.07h.02a.58.58 0 0 1 .255.061c.194.092.367.275.5.53.01 0 .01.01.01.02l.255 1.15.092.428 42.057 189.707a6 6 0 0 0 1.837 3.155l146.766 132.5c.01-.01.01 0 .02.01l1.68 1.518c.04.194.03.367-.05.5z" fill="#8c8c8c"/><path d="M255.99 35.03v210.2L62.587 364.6c-.08-.153-.092-.326-.04-.52l1.65-1.498 146.777-132.5a6 6 0 0 0 1.837-3.155L255.235 35.58c.122-.224.285-.397.47-.48.082-.05.173-.07.275-.07h.01z" fill="#e3e3e3"/><path d="M449.4 364.62l-2.914-1.803L256 245.232v-210.2a.58.58 0 0 1 .255.061c.194.092.367.275.49.53.01 0 .01.01.01.02l.254 1.1.102.458 42.067 189.717c.27 1.217.912 2.32 1.837 3.155L449.46 364.1c.042.203.032.376-.05.52z" fill="#ccc"/></svg>