<svg xmlns="http://www.w3.org/2000/svg" viewBox="0 0 512 512"><path d="M256 85C114.608 85 0 161.56 0 256s114.608 171 256 171c141.382 0 256-76.56 256-171S397.382 85 256 85zm128.494 66.958c7.54 5.573 7.52 16.688-.04 22.25-10.312 7.57-28.485 16.564-53.62 23.116-.484-1.75-.99-3.492-1.525-5.202-11.322-36.765-32.296-63.888-57.34-72.088 56.486 2.688 95.406 19.252 112.527 31.923zm-172.503 89.3c14.134 1.607 28.897 2.462 44.01 2.462s29.865-.855 44-2.462c.31 4.42.474 8.972.474 13.64 0 59.963-26.774 99.747-44.473 99.747-17.71 0-44.483-39.783-44.483-99.747 0-4.667.165-9.22.474-13.64zm81.446-37.012c-11.6 1.36-24.086 2.132-37.437 2.132-4.39 0-8.684-.082-12.877-.247-.04 0-.072 0-.103-.01a309.84 309.84 0 0 1-24.467-1.875C227.7 173.57 243.947 155.14 256 155.14c12.043 0 28.29 18.43 37.437 49.106zm-165.9-52.413c13.217-9.704 39.363-21.756 76.512-27.988l1.926-.32c10.508-1.69 21.87-2.915 34.058-3.492-26.218 8.58-47.965 37.888-58.865 77.28-25.178-6.572-43.37-15.606-53.672-23.23-7.54-5.584-7.52-16.7.04-22.252zM271.504 394.18l-2.596.113h-.03a314.23 314.23 0 0 1-12.877.258c-118.213 0-218.08-63.445-218.08-138.55 0-28.998 14.876-56.245 39.95-78.773 8.91 24.888 46.193 46.335 96.6 57.738-.577 6.5-.865 13.165-.865 19.933 0 75.9 36.89 137.45 82.404 137.45 45.503 0 82.394-61.54 82.394-137.45 0-6.768-.288-13.423-.865-19.933 50.396-11.403 87.68-32.85 96.6-57.738 25.064 22.53 39.95 49.775 39.95 78.773 0 71.8-91.264 132.937-202.565 138.18zm57.804-202.058c.464 1.75.968 3.492 1.525 5.202-.485-1.75-1-3.492-1.525-5.202z" fill="#ccc"/><path d="M127.495 174.085c10.302 7.623 28.495 16.657 53.672 23.23-43.638-1.75-67-14.453-74.372-21.492s-4.814-18.436 2.747-23.988c17.142-12.588 37.516-20.22 96.432-28.308l-1.926.32c-37.148 6.232-63.294 18.285-76.512 27.988a13.76 13.76 0 0 0-.041 22.252zM256 85a389.85 389.85 0 0 0-12.878.215c135.4 4.48 243.123 79.228 243.123 170.785S378.52 422.304 243.122 426.785A389.85 389.85 0 0 0 256 427c141.382 0 256-76.56 256-171S397.382 85 256 85zm81.53 149.965c.577 6.5.865 13.165.865 19.933 0 75.9-36.9 137.45-82.394 137.45-4.378 0-8.684-.577-12.877-1.68 39.384-10.312 68.6-46.582 68.6-115.178 0-.072.927-20.726.927-20.798-.01-11.352 13.7-17.8 24.9-19.727zm-6.698-37.64c-.748.288-1.6.524-2.5.714-11.756 2.46-23.66-4.066-28.185-15.2-13.027-32.017-37.23-55.32-60.116-62.814 11.6-2.843 21.428-1.7 31.936 0 25.044 8.2 46.018 35.323 57.34 72.088a97.21 97.21 0 0 0 1.524 5.202z" fill="#8c8c8c"/></svg>